# xmcd
#
# Track frame offsets:
#	150
#	17949
#	36398
#	49940
#	65008
#	79502
#	94449
#	111089
#	125448
#	140609
#	154510
#	170505
#	187661
#	202967
#	219402
#	233509
#	245766
#	260673
#	277388
#	293868
#	312029
#
# Disc length: 4319 seconds
# Revision: 0
# Processed by: cddbd v1.5.2PL0 Copyright (c) Steve Scherf et al.
# Submitted via: dBpowerAMP V12.0
#
DISCID=3810dd15
DTITLE=Various Artist - Country Radio December 2012
DYEAR=2012
DGENRE=Country
TTITLE0=Emerson Drive Feat Doc Walker - Let It Roll
TTITLE1=Smal Town Pistols - Living On The Outside
TTITLE2=High Valley - Love You For A Long Time
TTITLE3=Kortney and Dave - Marry Me Again
TTITLE4=Jason Aldean Feat Luke Bryan - The Only Way I Know
TTITLE5=Hunter Hayes - Somebody's Heartbreak
TTITLE6=Autumn Hill - Anything At All
TTITLE7=Band Perry The - Better Dig Two (Explicit Lyrics)
TTITLE8=Kira Isabella - Songs About You
TTITLE9=Terri Clark - Love Is A Rose
TTITLE10=Parmalee - Musta Had A Good Time
TTITLE11=Faith Hill - American Heart
TTITLE12=Thompson Square - If I Didn't Have You
TTITLE13=Josh Turner - Find Me A Baby
TTITLE14=Bobby Wills - Somebody Will
TTITLE15=Easton Corbin - All Over The Road
TTITLE16=Love and Theft - Runnin Out Of Air
TTITLE17=Tim McGraw - One Of Those Nights
TTITLE18=Toby Keith - Hope On The Rocks
TTITLE19=Lady Antebellum - On This Winter's Night
TTITLE20=Blake SheltonFeat Dorothy Shackleford - Time To Come Home
EXTD=
EXTT0=
EXTT1=
EXTT2=
EXTT3=
EXTT4=
EXTT5=
EXTT6=
EXTT7=
EXTT8=
EXTT9=
EXTT10=
EXTT11=
EXTT12=
EXTT13=
EXTT14=
EXTT15=
EXTT16=
EXTT17=
EXTT18=
EXTT19=
EXTT20=
PLAYORDER=
